<?xml version="1.0" standalone="no"?>
<!DOCTYPE svg PUBLIC "-//W3C//DTD SVG 20010904//EN"
 "http://www.w3.org/TR/2001/REC-SVG-20010904/DTD/svg10.dtd">
<svg version="1.0" xmlns="http://www.w3.org/2000/svg"
 width="256.000000pt" height="256.000000pt" viewBox="0 0 256.000000 256.000000"
 preserveAspectRatio="xMidYMid meet">
<metadata>
Created by potrace 1.11, written by Peter Selinger 2001-2013
</metadata>
<g transform="translate(0.000000,256.000000) scale(0.100000,-0.100000)"
fill="#000000" stroke="none">
<path d="M639 2546 c-165 -48 -265 -168 -305 -366 -32 -161 -5 -300 110 -575
63 -150 88 -219 102 -285 4 -19 8 -163 9 -320 2 -237 6 -308 23 -420 51 -316
121 -507 207 -560 46 -28 106 -26 143 5 72 61 90 195 69 531 -18 283 -12 352
41 459 30 62 65 101 117 128 32 17 57 22 125 22 130 0 196 -42 251 -160 46
-97 55 -186 41 -398 -22 -321 -15 -444 29 -534 49 -102 166 -96 241 12 39 57
83 185 112 327 45 214 56 340 56 616 0 309 1 315 110 577 95 229 120 324 120
455 0 171 -50 301 -152 395 -82 76 -146 99 -273 98 -88 0 -115 -5 -226 -41
-174 -56 -233 -66 -347 -59 -76 4 -129 16 -247 52 -168 52 -275 65 -356 41z"/>
</g>
</svg>
